<svg width="375" height="366" viewBox="0 0 375 366" fill="none" xmlns="http://www.w3.org/2000/svg">
<g clip-path="url(#clip0)">
<path d="M95.4812 231.652C93.4821 234.244 90.2969 235.541 85.9256 235.541C81.5542 235.541 77.4594 233.562 73.641 229.604C69.8227 225.641 67.9135 221.017 67.9135 215.732C67.9135 210.447 69.8354 205.813 73.6793 201.83C77.5236 197.841 81.7375 195.847 86.3211 195.847C88.1079 195.847 89.7376 196.172 91.21 196.824C92.6883 197.469 93.7038 198.063 94.2568 198.606C94.8097 199.15 95.2436 199.653 95.5583 200.114C95.7192 198.667 96.2592 197.567 97.1783 196.814C98.0978 196.062 99.5828 195.686 101.633 195.686C103.69 195.686 105.191 195.844 106.136 196.16C107.088 196.47 107.76 197.001 108.152 197.753C108.55 198.499 108.788 199.16 108.865 199.735C108.949 200.304 108.991 201.182 108.991 202.371V234.526C108.991 240.487 106.882 245.291 102.665 248.939C98.4547 252.593 93.717 254.42 88.4521 254.42C84.4469 254.42 80.6284 253.459 76.9964 251.537C73.3644 249.622 71.5484 247.89 71.5484 246.341C71.5484 244.318 72.3358 242.529 73.9107 240.974C74.9138 239.886 75.6917 239.134 76.2447 238.717C76.7972 238.306 77.4401 238.1 78.1732 238.1C78.9121 238.1 79.677 238.413 80.4677 239.039C83.0008 240.955 85.7394 241.913 88.6835 241.913C90.6892 241.913 92.3219 241.135 93.5816 239.58C94.848 238.025 95.4812 236.16 95.4812 233.985V231.652ZM81.4224 215.77C81.4224 217.451 82.0909 218.965 83.4281 220.312C84.7717 221.658 86.4047 222.331 88.3268 222.331C90.249 222.331 91.8432 221.645 93.1095 220.273C94.3759 218.902 95.0091 217.401 95.0091 215.77C95.0091 214.138 94.4016 212.612 93.1867 211.19C91.9779 209.761 90.345 209.046 88.2879 209.046C86.2374 209.046 84.579 209.748 83.3127 211.151C82.0525 212.548 81.4224 214.088 81.4224 215.77ZM143.582 196.311C144.585 196.621 145.414 197.152 146.07 197.905C146.732 198.657 147.063 199.861 147.063 201.517C147.063 203.174 146.562 204.988 145.559 206.96C144.562 208.926 143.116 209.909 141.22 209.909C140.268 209.909 139.358 209.701 138.491 209.283C137.623 208.866 136.475 208.658 135.048 208.658C133.628 208.658 132.297 209.151 131.056 210.137C129.822 211.123 129.205 212.315 129.205 213.712V230.022C129.205 231.216 129.166 232.111 129.089 232.705C129.012 233.3 128.761 233.985 128.337 234.763C127.546 236.109 125.492 236.783 122.175 236.783C119.649 236.783 117.833 236.343 116.727 235.465C115.885 234.738 115.412 233.622 115.309 232.117C115.309 231.605 115.309 230.856 115.309 229.87V202.608C115.309 201.413 115.348 200.519 115.425 199.924C115.502 199.33 115.727 198.669 116.101 197.943C116.833 196.545 118.887 195.847 122.262 195.847C125.418 195.847 127.392 196.441 128.183 197.63C128.761 198.458 129.05 199.314 129.05 200.199C129.314 199.833 129.697 199.39 130.198 198.872C130.699 198.354 131.766 197.655 133.399 196.776C135.032 195.898 136.466 195.458 137.7 195.458C138.94 195.458 139.982 195.525 140.824 195.657C141.666 195.784 142.585 196.002 143.582 196.311ZM147.854 216.357C147.854 210.137 150.065 205.01 154.488 200.977C158.911 196.937 163.966 194.917 169.656 194.917C175.345 194.917 180.372 196.925 184.736 200.939C189.108 204.947 191.293 210.058 191.293 216.272C191.293 220.571 190.162 224.392 187.899 227.736C185.636 231.074 182.885 233.533 179.645 235.114C176.405 236.694 173.046 237.484 169.569 237.484C166.097 237.484 162.729 236.644 159.463 234.962C156.198 233.274 153.446 230.787 151.209 227.499C148.972 224.212 147.854 220.498 147.854 216.357ZM164.362 221.914C166.046 223.179 167.756 223.811 169.491 223.811C171.233 223.811 172.972 223.163 174.708 221.866C176.444 220.571 177.312 218.655 177.312 216.121C177.312 213.585 176.495 211.695 174.862 210.45C173.236 209.205 171.475 208.582 169.578 208.582C167.682 208.582 165.917 209.23 164.285 210.526C162.652 211.822 161.835 213.728 161.835 216.244C161.835 218.753 162.677 220.644 164.362 221.914ZM248.092 196.16C251.461 197.607 253.145 199.393 253.145 201.517C253.145 202.396 252.724 203.806 251.882 205.747C251.039 207.687 250.329 209.385 249.751 210.839L241.062 231.652C240.272 233.935 238.954 235.54 237.109 236.47C236.325 236.836 235.325 237.019 234.11 237.019C232.901 237.019 231.728 236.568 230.591 235.664C229.459 234.753 228.71 233.83 228.344 232.895L227.717 231.576C227.293 230.54 225.737 226.501 223.05 219.458C222.523 220.704 221.745 222.739 220.717 225.565C219.694 228.384 219.038 230.145 218.749 230.846C218.46 231.542 218.274 232.006 218.19 232.24C218.113 232.474 217.888 232.901 217.515 233.521C217.149 234.14 216.731 234.684 216.262 235.152C214.995 236.397 213.546 237.019 211.913 237.019C210.28 237.019 208.911 236.568 207.805 235.664C206.699 234.753 205.963 233.83 205.597 232.895L193.669 204.315C193.142 202.76 192.878 201.748 192.878 201.281C192.878 199.213 194.379 197.582 197.381 196.387C199.066 195.717 200.435 195.382 201.489 195.382C202.543 195.382 203.398 195.604 204.054 196.046C204.71 196.482 205.169 196.922 205.433 197.364C205.697 197.8 205.909 198.252 206.069 198.72C206.963 200.794 208.833 205.661 211.681 213.323L216.339 200.74C216.654 199.703 217.232 198.796 218.074 198.019C219.604 196.52 221.157 195.771 222.732 195.771C224.313 195.771 225.67 196.185 226.801 197.013C227.932 197.841 228.71 198.669 229.134 199.498L229.771 200.816C232.4 208.067 233.952 212.21 234.428 213.247L239.25 200.351C240.509 197.039 242.403 195.382 244.929 195.382C245.932 195.382 246.986 195.641 248.092 196.16ZM257.496 202.684C257.496 201.489 257.534 200.594 257.612 200C257.689 199.406 257.914 198.72 258.287 197.943C259.019 196.596 261.073 195.922 264.448 195.922C266.975 195.922 268.765 196.362 269.819 197.241C270.713 197.968 271.185 199.083 271.237 200.588C271.288 201.1 271.314 201.849 271.314 202.835V230.022C271.314 231.216 271.275 232.111 271.198 232.705C271.121 233.3 270.87 233.985 270.446 234.763C269.765 236.109 267.736 236.783 264.361 236.783C261.044 236.783 259.019 236.084 258.287 234.687C257.914 233.909 257.689 233.236 257.612 232.667C257.534 232.098 257.496 231.191 257.496 229.946V202.684ZM270.484 188.27C270.092 189.023 269.395 189.554 268.392 189.863C267.396 190.173 266.065 190.328 264.4 190.328C262.742 190.328 261.411 190.173 260.408 189.863C259.411 189.554 258.714 189.01 258.316 188.233C257.923 187.455 257.689 186.769 257.612 186.175C257.534 185.581 257.496 184.689 257.496 183.501C257.496 182.306 257.534 181.412 257.612 180.817C257.689 180.217 257.914 179.556 258.287 178.835C259.019 177.438 261.073 176.74 264.448 176.74C267.765 176.74 269.765 177.438 270.446 178.835C270.87 179.613 271.121 180.299 271.198 180.893C271.275 181.488 271.314 182.382 271.314 183.577C271.314 184.765 271.275 185.656 271.198 186.251C271.121 186.845 270.883 187.518 270.484 188.27ZM276.453 216.357C276.453 210.137 278.664 205.01 283.087 200.977C287.51 196.937 292.566 194.917 298.255 194.917C303.944 194.917 308.971 196.925 313.336 200.939C317.707 204.947 319.893 210.058 319.893 216.272C319.893 220.571 318.761 224.392 316.498 227.736C314.236 231.074 311.484 233.533 308.244 235.114C305.005 236.694 301.646 237.484 298.168 237.484C294.697 237.484 291.328 236.644 288.063 234.962C284.797 233.274 282.046 230.787 279.808 227.499C277.572 224.212 276.453 220.498 276.453 216.357ZM292.961 221.914C294.645 223.179 296.355 223.811 298.091 223.811C299.833 223.811 301.572 223.163 303.307 221.866C305.043 220.571 305.911 218.655 305.911 216.121C305.911 213.585 305.095 211.695 303.462 210.45C301.835 209.205 300.074 208.582 298.178 208.582C296.281 208.582 294.517 209.23 292.884 210.526C291.251 211.822 290.435 213.728 290.435 216.244C290.435 218.753 291.277 220.644 292.961 221.914Z" fill="white"/>
<path fill-rule="evenodd" clip-rule="evenodd" d="M107.691 169.751C107.42 141.094 122.584 114.505 147.392 100.142C172.2 85.7776 202.819 85.8577 227.551 100.351C252.284 114.844 267.31 141.512 266.888 170.167L262.249 170.099C262.646 143.087 248.496 117.949 225.205 104.287C201.914 90.6241 173.08 90.5488 149.717 104.089C126.355 117.629 112.074 142.693 112.33 169.707L107.691 169.751Z" fill="white"/>
<mask id="mask0" mask-type="alpha" maskUnits="userSpaceOnUse" x="-56" y="-2" width="323" height="173">
<path fill-rule="evenodd" clip-rule="evenodd" d="M107.691 169.751C107.42 141.094 122.584 114.505 147.392 100.142C172.2 85.7776 202.819 85.8577 227.551 100.351C252.284 114.844 267.31 141.512 266.888 170.167L262.249 170.099C262.646 143.087 248.496 117.949 225.205 104.287C201.914 90.6241 173.08 90.5488 149.717 104.089C126.355 117.629 112.074 142.693 112.33 169.707L107.691 169.751Z" fill="black"/>
</mask>
<g mask="url(#mask0)">
<path fill-rule="evenodd" clip-rule="evenodd" d="M107.691 169.751C107.42 141.094 122.584 114.505 147.392 100.142C172.2 85.7776 202.819 85.8577 227.551 100.351C252.284 114.844 267.31 141.512 266.888 170.167L262.249 170.099C262.646 143.087 248.496 117.949 225.205 104.287C201.914 90.6241 173.08 90.5488 149.717 104.089C126.355 117.629 112.074 142.693 112.33 169.707L107.691 169.751Z" stroke="white" stroke-width="2" stroke-miterlimit="10" stroke-linejoin="round"/>
</g>
<path d="M214.26 141.871C213.787 141.446 213.111 141.257 212.453 141.365C212.379 141.377 211.554 141.514 210.271 141.755C211.424 138.008 212.145 134.493 212.184 134.306C212.304 133.715 212.094 133.109 211.62 132.683C211.147 132.258 210.471 132.07 209.813 132.177C209.692 132.197 208.559 132.385 206.909 132.708C207.732 129.923 208.24 127.45 208.268 127.314C208.388 126.723 208.178 126.116 207.705 125.691C207.231 125.266 206.555 125.077 205.897 125.185C204.998 125.333 202.431 125.776 199.639 126.457C196.334 121.402 192.229 116.537 192.055 116.331C191.67 115.876 191.07 115.609 190.432 115.609C189.796 115.609 189.196 115.876 188.811 116.331C188.637 116.536 184.532 121.401 181.227 126.455C178.438 125.776 175.874 125.333 174.976 125.185C174.318 125.077 173.642 125.266 173.169 125.691C172.695 126.116 172.485 126.723 172.605 127.314C172.632 127.446 173.14 129.92 173.964 132.708C172.315 132.385 171.182 132.198 171.06 132.178C170.402 132.07 169.726 132.259 169.253 132.684C168.78 133.109 168.569 133.715 168.69 134.307C168.727 134.49 169.449 138.007 170.603 141.755C169.319 141.514 168.494 141.378 168.421 141.366C167.762 141.258 167.086 141.447 166.613 141.872C166.14 142.297 165.929 142.903 166.05 143.495C166.08 143.642 166.798 147.147 167.969 151.105C169.63 156.72 171.292 160.215 173.046 161.791C175.035 163.577 178.765 164.445 184.449 164.445C185.966 164.445 187.35 164.38 188.399 164.31V168.488C188.399 169.499 189.312 170.318 190.437 170.318C191.562 170.318 192.474 169.499 192.474 168.488V164.309C193.523 164.38 194.907 164.445 196.423 164.445C196.423 164.445 196.423 164.445 196.424 164.445C202.108 164.445 205.838 163.576 207.827 161.791C209.582 160.215 211.243 156.719 212.904 151.104C214.076 147.146 214.793 143.641 214.823 143.495C214.944 142.903 214.734 142.297 214.26 141.871ZM205.719 142.688C205.153 142.814 204.571 142.948 203.979 143.089C203.411 143.225 202.863 143.36 202.334 143.496C201.575 141.83 200.587 140.031 199.524 138.261C202.239 137.445 205.342 136.768 207.562 136.329C207.129 138.09 206.491 140.472 205.719 142.688ZM190.437 149.881C189.999 149.013 189.459 148.246 188.793 147.649C187.64 146.613 185.564 145.614 182.504 144.628C184.53 140.278 188.295 134.831 190.474 131.82C192.65 134.825 196.404 140.256 198.435 144.607C195.339 145.6 193.242 146.606 192.08 147.649C191.414 148.246 190.874 149.013 190.437 149.881ZM202.361 133.69C200.741 134.076 199.047 134.524 197.486 135.021C196.701 133.825 195.929 132.695 195.226 131.692C197.038 130.899 200.337 130.015 203.634 129.34C203.309 130.62 202.874 132.195 202.361 133.69ZM190.432 120.534C191.803 122.253 193.826 124.879 195.645 127.586C194.686 127.906 193.786 128.252 193.013 128.622C192.524 127.963 192.21 127.554 192.15 127.477C191.77 126.982 191.143 126.687 190.474 126.687C189.805 126.687 189.178 126.982 188.798 127.477C188.737 127.556 188.415 127.976 187.916 128.649C187.128 128.267 186.206 127.912 185.222 127.584C187.039 124.88 189.062 122.253 190.432 120.534ZM177.239 129.339C180.571 130.021 183.905 130.916 185.705 131.717C185.002 132.719 184.232 133.847 183.45 135.041C181.872 134.536 180.155 134.082 178.514 133.69C178.002 132.196 177.564 130.621 177.239 129.339ZM173.311 136.328C175.549 136.77 178.681 137.454 181.413 138.28C180.351 140.051 179.364 141.848 178.607 143.513C178.057 143.372 177.486 143.231 176.894 143.089C176.303 142.948 175.721 142.814 175.155 142.689C174.384 140.474 173.744 138.091 173.311 136.328ZM188.16 160.655C187.184 160.721 185.873 160.785 184.45 160.785C178.348 160.785 176.458 159.679 175.928 159.203C174.017 157.487 171.906 150.721 170.652 145.498C176.468 146.624 184.001 148.521 185.912 150.236C187.742 151.88 188.242 156.973 188.16 160.655ZM204.946 159.203C204.416 159.679 202.525 160.785 196.423 160.785C195 160.785 193.688 160.721 192.713 160.655C192.629 156.823 193.211 151.808 194.961 150.236C196.22 149.106 199.916 147.898 203.955 146.883C206.049 146.357 208.236 145.883 210.222 145.498C208.968 150.721 206.856 157.487 204.946 159.203Z" fill="white"/>
<path d="M165.933 248.28C166.669 248.28 167.336 248.472 167.933 248.856C168.53 249.229 169 249.752 169.341 250.424C169.693 251.096 169.869 251.859 169.869 252.712C169.869 253.565 169.698 254.333 169.357 255.016C169.016 255.688 168.546 256.216 167.949 256.6C167.362 256.973 166.712 257.16 165.997 257.16C165.485 257.16 165 257.059 164.541 256.856C164.093 256.643 163.72 256.387 163.421 256.088V256.184C163.421 256.461 163.33 256.696 163.149 256.888C162.968 257.069 162.738 257.16 162.461 257.16C162.184 257.16 161.954 257.069 161.773 256.888C161.592 256.707 161.501 256.472 161.501 256.184V246.136C161.501 245.859 161.592 245.629 161.773 245.448C161.954 245.256 162.184 245.16 162.461 245.16C162.738 245.16 162.968 245.256 163.149 245.448C163.33 245.629 163.421 245.859 163.421 246.136V249.48C163.677 249.16 164.034 248.883 164.493 248.648C164.952 248.403 165.432 248.28 165.933 248.28ZM165.693 255.4C166.376 255.4 166.936 255.144 167.373 254.632C167.81 254.12 168.029 253.48 168.029 252.712C168.029 251.944 167.81 251.309 167.373 250.808C166.946 250.296 166.386 250.04 165.693 250.04C165 250.04 164.434 250.296 163.997 250.808C163.56 251.309 163.341 251.944 163.341 252.712C163.341 253.48 163.56 254.12 163.997 254.632C164.434 255.144 165 255.4 165.693 255.4ZM177.822 248.44C178.099 248.44 178.328 248.536 178.51 248.728C178.691 248.909 178.782 249.139 178.782 249.416V256.216C178.782 257.603 178.408 258.611 177.662 259.24C176.915 259.88 175.918 260.2 174.67 260.2C174.307 260.2 173.934 260.168 173.55 260.104C173.176 260.051 172.872 259.976 172.638 259.88C172.115 259.656 171.854 259.347 171.854 258.952C171.854 258.877 171.87 258.792 171.902 258.696C171.966 258.461 172.072 258.28 172.222 258.152C172.382 258.035 172.552 257.976 172.734 257.976C172.84 257.976 172.942 257.992 173.038 258.024C173.112 258.056 173.24 258.109 173.422 258.184C173.614 258.259 173.811 258.317 174.014 258.36C174.227 258.413 174.446 258.44 174.67 258.44C175.427 258.44 175.982 258.275 176.334 257.944C176.696 257.624 176.878 257.069 176.878 256.28V256.12C176.323 256.813 175.459 257.16 174.286 257.16C173.731 257.16 173.24 257.032 172.814 256.776C172.387 256.509 172.056 256.147 171.822 255.688C171.587 255.219 171.47 254.685 171.47 254.088V249.416C171.47 249.139 171.56 248.909 171.742 248.728C171.923 248.536 172.152 248.44 172.43 248.44C172.707 248.44 172.936 248.536 173.118 248.728C173.299 248.909 173.39 249.139 173.39 249.416V253.512C173.39 254.184 173.534 254.669 173.822 254.968C174.12 255.256 174.552 255.4 175.118 255.4C175.672 255.4 176.099 255.24 176.398 254.92C176.707 254.589 176.862 254.12 176.862 253.512V249.416C176.862 249.139 176.952 248.909 177.134 248.728C177.315 248.536 177.544 248.44 177.822 248.44ZM194.289 255.432C194.427 255.517 194.534 255.629 194.609 255.768C194.694 255.907 194.737 256.051 194.737 256.2C194.737 256.392 194.673 256.568 194.545 256.728C194.385 256.92 194.139 257.016 193.809 257.016C193.553 257.016 193.318 256.957 193.105 256.84C192.337 256.403 191.953 255.512 191.953 254.168C191.953 253.784 191.825 253.48 191.569 253.256C191.323 253.032 190.966 252.92 190.497 252.92H187.505V256.024C187.505 256.312 187.425 256.547 187.265 256.728C187.115 256.909 186.913 257 186.657 257C186.347 257 186.075 256.909 185.841 256.728C185.617 256.536 185.505 256.301 185.505 256.024V246.776C185.505 246.499 185.595 246.269 185.777 246.088C185.969 245.896 186.203 245.8 186.481 245.8H191.089C191.643 245.8 192.166 245.949 192.657 246.248C193.147 246.547 193.537 246.957 193.825 247.48C194.123 248.003 194.273 248.589 194.273 249.24C194.273 249.773 194.129 250.296 193.841 250.808C193.553 251.309 193.179 251.709 192.721 252.008C193.393 252.477 193.761 253.107 193.825 253.896C193.857 254.067 193.873 254.232 193.873 254.392C193.915 254.723 193.958 254.963 194.001 255.112C194.043 255.251 194.139 255.357 194.289 255.432ZM191.009 251.272C191.201 251.272 191.387 251.181 191.569 251C191.75 250.819 191.899 250.579 192.017 250.28C192.134 249.971 192.193 249.64 192.193 249.288C192.193 248.989 192.134 248.717 192.017 248.472C191.899 248.216 191.75 248.013 191.569 247.864C191.387 247.715 191.201 247.64 191.009 247.64H187.505V251.272H191.009ZM203.931 252.52C203.92 252.776 203.819 252.984 203.627 253.144C203.435 253.304 203.211 253.384 202.955 253.384H197.675C197.803 254.013 198.096 254.509 198.555 254.872C199.014 255.224 199.531 255.4 200.107 255.4C200.544 255.4 200.886 255.363 201.131 255.288C201.376 255.203 201.568 255.117 201.707 255.032C201.856 254.936 201.958 254.872 202.011 254.84C202.203 254.744 202.384 254.696 202.555 254.696C202.779 254.696 202.971 254.776 203.131 254.936C203.291 255.096 203.371 255.283 203.371 255.496C203.371 255.784 203.222 256.045 202.923 256.28C202.624 256.525 202.224 256.733 201.723 256.904C201.222 257.075 200.715 257.16 200.203 257.16C199.307 257.16 198.523 256.973 197.851 256.6C197.19 256.227 196.678 255.715 196.315 255.064C195.952 254.403 195.771 253.661 195.771 252.84C195.771 251.923 195.963 251.117 196.347 250.424C196.731 249.731 197.238 249.203 197.867 248.84C198.496 248.467 199.168 248.28 199.883 248.28C200.587 248.28 201.248 248.472 201.867 248.856C202.496 249.24 202.998 249.757 203.371 250.408C203.744 251.059 203.931 251.763 203.931 252.52ZM199.883 250.04C198.646 250.04 197.915 250.621 197.691 251.784H201.883V251.672C201.84 251.224 201.622 250.84 201.227 250.52C200.832 250.2 200.384 250.04 199.883 250.04ZM212.523 248.28C212.8 248.28 213.029 248.371 213.211 248.552C213.392 248.733 213.483 248.968 213.483 249.256V256.024C213.483 256.301 213.392 256.536 213.211 256.728C213.029 256.909 212.8 257 212.523 257C212.245 257 212.016 256.909 211.835 256.728C211.664 256.547 211.573 256.317 211.563 256.04C211.296 256.349 210.933 256.616 210.475 256.84C210.027 257.053 209.552 257.16 209.051 257.16C208.315 257.16 207.648 256.973 207.051 256.6C206.453 256.216 205.979 255.688 205.627 255.016C205.285 254.344 205.115 253.581 205.115 252.728C205.115 251.875 205.285 251.112 205.627 250.44C205.968 249.757 206.432 249.229 207.019 248.856C207.616 248.472 208.272 248.28 208.987 248.28C209.499 248.28 209.979 248.376 210.427 248.568C210.875 248.749 211.253 248.984 211.563 249.272V249.256C211.563 248.979 211.653 248.749 211.835 248.568C212.016 248.376 212.245 248.28 212.523 248.28ZM209.291 255.4C209.984 255.4 210.549 255.149 210.987 254.648C211.424 254.136 211.643 253.496 211.643 252.728C211.643 251.96 211.424 251.32 210.987 250.808C210.549 250.296 209.984 250.04 209.291 250.04C208.608 250.04 208.048 250.296 207.611 250.808C207.173 251.32 206.955 251.96 206.955 252.728C206.955 253.496 207.168 254.136 207.595 254.648C208.032 255.149 208.597 255.4 209.291 255.4ZM217.643 256.024C217.643 256.301 217.547 256.536 217.355 256.728C217.174 256.909 216.945 257 216.667 257C216.401 257 216.177 256.909 215.995 256.728C215.814 256.536 215.723 256.301 215.723 256.024V246.136C215.723 245.859 215.814 245.629 215.995 245.448C216.187 245.256 216.422 245.16 216.699 245.16C216.966 245.16 217.19 245.256 217.371 245.448C217.553 245.629 217.643 245.859 217.643 246.136V256.024ZM221.956 256.024C221.956 256.301 221.86 256.536 221.668 256.728C221.487 256.909 221.257 257 220.98 257C220.713 257 220.489 256.909 220.308 256.728C220.127 256.536 220.036 256.301 220.036 256.024V246.136C220.036 245.859 220.127 245.629 220.308 245.448C220.5 245.256 220.735 245.16 221.012 245.16C221.279 245.16 221.503 245.256 221.684 245.448C221.865 245.629 221.956 245.859 221.956 246.136V256.024ZM230.306 248.44C230.583 248.44 230.813 248.536 230.994 248.728C231.175 248.909 231.266 249.139 231.266 249.416V256.216C231.266 257.603 230.893 258.611 230.146 259.24C229.399 259.88 228.402 260.2 227.154 260.2C226.791 260.2 226.418 260.168 226.034 260.104C225.661 260.051 225.357 259.976 225.122 259.88C224.599 259.656 224.338 259.347 224.338 258.952C224.338 258.877 224.354 258.792 224.386 258.696C224.45 258.461 224.557 258.28 224.706 258.152C224.866 258.035 225.037 257.976 225.218 257.976C225.325 257.976 225.426 257.992 225.522 258.024C225.597 258.056 225.725 258.109 225.906 258.184C226.098 258.259 226.295 258.317 226.498 258.36C226.711 258.413 226.93 258.44 227.154 258.44C227.911 258.44 228.466 258.275 228.818 257.944C229.181 257.624 229.362 257.069 229.362 256.28V256.12C228.807 256.813 227.943 257.16 226.77 257.16C226.215 257.16 225.725 257.032 225.298 256.776C224.871 256.509 224.541 256.147 224.306 255.688C224.071 255.219 223.954 254.685 223.954 254.088V249.416C223.954 249.139 224.045 248.909 224.226 248.728C224.407 248.536 224.637 248.44 224.914 248.44C225.191 248.44 225.421 248.536 225.602 248.728C225.783 248.909 225.874 249.139 225.874 249.416V253.512C225.874 254.184 226.018 254.669 226.306 254.968C226.605 255.256 227.037 255.4 227.602 255.4C228.157 255.4 228.583 255.24 228.882 254.92C229.191 254.589 229.346 254.12 229.346 253.512V249.416C229.346 249.139 229.437 248.909 229.618 248.728C229.799 248.536 230.029 248.44 230.306 248.44ZM239.989 256.024C239.989 256.301 239.888 256.536 239.685 256.728C239.482 256.909 239.248 257 238.981 257C238.693 257 238.453 256.909 238.261 256.728C238.08 256.536 237.989 256.301 237.989 256.024V246.776C237.989 246.499 238.085 246.269 238.277 246.088C238.469 245.896 238.714 245.8 239.013 245.8C239.28 245.8 239.509 245.896 239.701 246.088C239.893 246.269 239.989 246.499 239.989 246.776V256.024ZM246.811 248.28C247.899 248.28 248.651 248.605 249.067 249.256C249.483 249.896 249.691 250.787 249.691 251.928V256.024C249.691 256.301 249.601 256.536 249.419 256.728C249.238 256.909 249.009 257 248.731 257C248.454 257 248.225 256.909 248.043 256.728C247.862 256.536 247.771 256.301 247.771 256.024V251.928C247.771 251.341 247.649 250.883 247.403 250.552C247.158 250.211 246.737 250.04 246.139 250.04C245.521 250.04 245.035 250.221 244.683 250.584C244.331 250.936 244.155 251.384 244.155 251.928V256.024C244.155 256.301 244.065 256.536 243.883 256.728C243.702 256.909 243.473 257 243.195 257C242.918 257 242.689 256.909 242.507 256.728C242.326 256.536 242.235 256.301 242.235 256.024V249.416C242.235 249.139 242.326 248.909 242.507 248.728C242.689 248.536 242.918 248.44 243.195 248.44C243.473 248.44 243.702 248.536 243.883 248.728C244.065 248.909 244.155 249.139 244.155 249.416V249.688C244.443 249.304 244.817 248.973 245.275 248.696C245.745 248.419 246.257 248.28 246.811 248.28ZM255.895 255.192C256.044 255.192 256.177 255.267 256.295 255.416C256.423 255.555 256.487 255.741 256.487 255.976C256.487 256.264 256.327 256.509 256.007 256.712C255.697 256.904 255.345 257 254.951 257C254.289 257 253.729 256.861 253.271 256.584C252.823 256.296 252.599 255.693 252.599 254.776V250.36H251.863C251.607 250.36 251.393 250.275 251.223 250.104C251.052 249.933 250.967 249.72 250.967 249.464C250.967 249.219 251.052 249.016 251.223 248.856C251.393 248.685 251.607 248.6 251.863 248.6H252.599V247.576C252.599 247.299 252.689 247.069 252.871 246.888C253.063 246.696 253.297 246.6 253.575 246.6C253.841 246.6 254.065 246.696 254.247 246.888C254.428 247.069 254.519 247.299 254.519 247.576V248.6H255.655C255.911 248.6 256.124 248.685 256.295 248.856C256.465 249.027 256.551 249.24 256.551 249.496C256.551 249.741 256.465 249.949 256.295 250.12C256.124 250.28 255.911 250.36 255.655 250.36H254.519V254.696C254.519 254.92 254.577 255.085 254.695 255.192C254.812 255.288 254.972 255.336 255.175 255.336C255.26 255.336 255.377 255.315 255.527 255.272C255.655 255.219 255.777 255.192 255.895 255.192ZM266.459 252.728C266.459 253.581 266.267 254.349 265.883 255.032C265.499 255.704 264.971 256.227 264.299 256.6C263.638 256.973 262.907 257.16 262.107 257.16C261.297 257.16 260.561 256.973 259.899 256.6C259.238 256.227 258.715 255.704 258.331 255.032C257.947 254.349 257.755 253.581 257.755 252.728C257.755 251.875 257.947 251.112 258.331 250.44C258.715 249.757 259.238 249.229 259.899 248.856C260.561 248.472 261.297 248.28 262.107 248.28C262.907 248.28 263.638 248.472 264.299 248.856C264.971 249.229 265.499 249.757 265.883 250.44C266.267 251.112 266.459 251.875 266.459 252.728ZM264.539 252.728C264.539 252.205 264.427 251.741 264.203 251.336C263.99 250.92 263.697 250.6 263.323 250.376C262.961 250.152 262.555 250.04 262.107 250.04C261.659 250.04 261.249 250.152 260.875 250.376C260.513 250.6 260.219 250.92 259.995 251.336C259.782 251.741 259.675 252.205 259.675 252.728C259.675 253.251 259.782 253.715 259.995 254.12C260.219 254.525 260.513 254.84 260.875 255.064C261.249 255.288 261.659 255.4 262.107 255.4C262.555 255.4 262.961 255.288 263.323 255.064C263.697 254.84 263.99 254.525 264.203 254.12C264.427 253.715 264.539 253.251 264.539 252.728ZM277.332 245.8C277.876 245.8 278.393 245.965 278.884 246.296C279.374 246.616 279.769 247.053 280.068 247.608C280.366 248.152 280.516 248.749 280.516 249.4C280.516 250.04 280.366 250.637 280.068 251.192C279.769 251.747 279.374 252.189 278.884 252.52C278.393 252.84 277.876 253 277.332 253H274.548V256.024C274.548 256.312 274.462 256.547 274.292 256.728C274.121 256.909 273.897 257 273.62 257C273.353 257 273.134 256.909 272.964 256.728C272.793 256.536 272.708 256.301 272.708 256.024V246.776C272.708 246.499 272.798 246.269 272.98 246.088C273.172 245.896 273.406 245.8 273.684 245.8H277.332ZM277.332 251.176C277.534 251.176 277.732 251.091 277.924 250.92C278.126 250.749 278.286 250.531 278.404 250.264C278.532 249.987 278.596 249.699 278.596 249.4C278.596 249.101 278.532 248.819 278.404 248.552C278.286 248.275 278.126 248.056 277.924 247.896C277.732 247.725 277.534 247.64 277.332 247.64H274.548V251.176H277.332ZM284.268 256.024C284.268 256.301 284.172 256.536 283.98 256.728C283.799 256.909 283.57 257 283.292 257C283.026 257 282.802 256.909 282.62 256.728C282.439 256.536 282.348 256.301 282.348 256.024V246.136C282.348 245.859 282.439 245.629 282.62 245.448C282.812 245.256 283.047 245.16 283.324 245.16C283.591 245.16 283.815 245.256 283.996 245.448C284.178 245.629 284.268 245.859 284.268 246.136V256.024ZM293.429 248.28C293.706 248.28 293.936 248.371 294.117 248.552C294.298 248.733 294.389 248.968 294.389 249.256V256.024C294.389 256.301 294.298 256.536 294.117 256.728C293.936 256.909 293.706 257 293.429 257C293.152 257 292.922 256.909 292.741 256.728C292.57 256.547 292.48 256.317 292.469 256.04C292.202 256.349 291.84 256.616 291.381 256.84C290.933 257.053 290.458 257.16 289.957 257.16C289.221 257.16 288.554 256.973 287.957 256.6C287.36 256.216 286.885 255.688 286.533 255.016C286.192 254.344 286.021 253.581 286.021 252.728C286.021 251.875 286.192 251.112 286.533 250.44C286.874 249.757 287.338 249.229 287.925 248.856C288.522 248.472 289.178 248.28 289.893 248.28C290.405 248.28 290.885 248.376 291.333 248.568C291.781 248.749 292.16 248.984 292.469 249.272V249.256C292.469 248.979 292.56 248.749 292.741 248.568C292.922 248.376 293.152 248.28 293.429 248.28ZM290.197 255.4C290.89 255.4 291.456 255.149 291.893 254.648C292.33 254.136 292.549 253.496 292.549 252.728C292.549 251.96 292.33 251.32 291.893 250.808C291.456 250.296 290.89 250.04 290.197 250.04C289.514 250.04 288.954 250.296 288.517 250.808C288.08 251.32 287.861 251.96 287.861 252.728C287.861 253.496 288.074 254.136 288.501 254.648C288.938 255.149 289.504 255.4 290.197 255.4ZM301.046 248.28C302.134 248.28 302.886 248.605 303.302 249.256C303.718 249.896 303.926 250.787 303.926 251.928V256.024C303.926 256.301 303.835 256.536 303.654 256.728C303.472 256.909 303.243 257 302.966 257C302.688 257 302.459 256.909 302.278 256.728C302.096 256.536 302.006 256.301 302.006 256.024V251.928C302.006 251.341 301.883 250.883 301.638 250.552C301.392 250.211 300.971 250.04 300.374 250.04C299.755 250.04 299.27 250.221 298.918 250.584C298.566 250.936 298.39 251.384 298.39 251.928V256.024C298.39 256.301 298.299 256.536 298.118 256.728C297.936 256.909 297.707 257 297.43 257C297.152 257 296.923 256.909 296.742 256.728C296.56 256.536 296.47 256.301 296.47 256.024V249.416C296.47 249.139 296.56 248.909 296.742 248.728C296.923 248.536 297.152 248.44 297.43 248.44C297.707 248.44 297.936 248.536 298.118 248.728C298.299 248.909 298.39 249.139 298.39 249.416V249.688C298.678 249.304 299.051 248.973 299.51 248.696C299.979 248.419 300.491 248.28 301.046 248.28ZM310.129 255.192C310.278 255.192 310.412 255.267 310.529 255.416C310.657 255.555 310.721 255.741 310.721 255.976C310.721 256.264 310.561 256.509 310.241 256.712C309.932 256.904 309.58 257 309.185 257C308.524 257 307.964 256.861 307.505 256.584C307.057 256.296 306.833 255.693 306.833 254.776V250.36H306.097C305.841 250.36 305.628 250.275 305.457 250.104C305.286 249.933 305.201 249.72 305.201 249.464C305.201 249.219 305.286 249.016 305.457 248.856C305.628 248.685 305.841 248.6 306.097 248.6H306.833V247.576C306.833 247.299 306.924 247.069 307.105 246.888C307.297 246.696 307.532 246.6 307.809 246.6C308.076 246.6 308.3 246.696 308.481 246.888C308.662 247.069 308.753 247.299 308.753 247.576V248.6H309.889C310.145 248.6 310.358 248.685 310.529 248.856C310.7 249.027 310.785 249.24 310.785 249.496C310.785 249.741 310.7 249.949 310.529 250.12C310.358 250.28 310.145 250.36 309.889 250.36H308.753V254.696C308.753 254.92 308.812 255.085 308.929 255.192C309.046 255.288 309.206 255.336 309.409 255.336C309.494 255.336 309.612 255.315 309.761 255.272C309.889 255.219 310.012 255.192 310.129 255.192ZM312.364 255.672C312.268 255.544 312.22 255.384 312.22 255.192C312.22 254.915 312.359 254.68 312.636 254.488C312.786 254.392 312.94 254.344 313.1 254.344C313.324 254.344 313.538 254.445 313.74 254.648C314.06 254.979 314.391 255.224 314.732 255.384C315.084 255.544 315.506 255.624 315.996 255.624C316.828 255.592 317.244 255.277 317.244 254.68C317.244 254.371 317.1 254.136 316.812 253.976C316.535 253.816 316.098 253.656 315.5 253.496C314.882 253.325 314.375 253.155 313.98 252.984C313.596 252.813 313.26 252.557 312.972 252.216C312.695 251.864 312.556 251.395 312.556 250.808C312.556 250.296 312.7 249.853 312.988 249.48C313.287 249.096 313.671 248.803 314.14 248.6C314.62 248.387 315.127 248.28 315.66 248.28C316.204 248.28 316.748 248.381 317.292 248.584C317.836 248.787 318.263 249.085 318.572 249.48C318.711 249.651 318.78 249.843 318.78 250.056C318.78 250.301 318.679 250.504 318.476 250.664C318.327 250.781 318.156 250.84 317.964 250.84C317.73 250.84 317.538 250.765 317.388 250.616C317.196 250.381 316.946 250.195 316.636 250.056C316.338 249.917 315.996 249.848 315.612 249.848C314.802 249.848 314.396 250.141 314.396 250.728C314.396 250.963 314.471 251.155 314.62 251.304C314.77 251.443 314.956 251.555 315.18 251.64C315.415 251.715 315.74 251.811 316.156 251.928C316.732 252.088 317.212 252.253 317.596 252.424C317.98 252.595 318.306 252.856 318.572 253.208C318.839 253.56 318.972 254.024 318.972 254.6C318.972 255.123 318.818 255.581 318.508 255.976C318.199 256.36 317.799 256.653 317.308 256.856C316.828 257.059 316.332 257.16 315.82 257.16C315.116 257.16 314.46 257.043 313.852 256.808C313.244 256.573 312.748 256.195 312.364 255.672Z" fill="white"/>
</g>
<defs>
<clipPath id="clip0">
<rect width="520" height="366" fill="white" transform="translate(-54)"/>
</clipPath>
</defs>
</svg>
